<?xml version="1.0" encoding="UTF-8" standalone="no"?>
<!-- Created with Inkscape (http://www.inkscape.org/) -->

<svg
   xmlns:dc="http://purl.org/dc/elements/1.1/"
   xmlns:cc="http://creativecommons.org/ns#"
   xmlns:rdf="http://www.w3.org/1999/02/22-rdf-syntax-ns#"
   xmlns:svg="http://www.w3.org/2000/svg"
   xmlns="http://www.w3.org/2000/svg"
   xmlns:sodipodi="http://sodipodi.sourceforge.net/DTD/sodipodi-0.dtd"
   xmlns:inkscape="http://www.inkscape.org/namespaces/inkscape"
   width="64"
   height="64"
   id="svg2"
   version="1.1"
   inkscape:version="0.48.4 r9939"
   sodipodi:docname="GAJSE.svg">
  <title
     id="title2987">GAJSE logo</title>
  <defs
     id="defs4" />
  <sodipodi:namedview
     id="base"
     pagecolor="#ffffff"
     bordercolor="#666666"
     borderopacity="1.0"
     inkscape:pageopacity="0.0"
     inkscape:pageshadow="2"
     inkscape:zoom="7.9195959"
     inkscape:cx="53.177963"
     inkscape:cy="35.26491"
     inkscape:document-units="px"
     inkscape:current-layer="layer1"
     showgrid="true"
     inkscape:window-width="1024"
     inkscape:window-height="744"
     inkscape:window-x="0"
     inkscape:window-y="24"
     inkscape:window-maximized="1"
     showguides="true"
     inkscape:guide-bbox="true">
    <inkscape:grid
       type="axonomgrid"
       id="grid2985"
       units="mm"
       empspacing="5"
       visible="true"
       enabled="true"
       snapvisiblegridlinesonly="true" />
  </sodipodi:namedview>
  <metadata
     id="metadata7">
    <rdf:RDF>
      <cc:Work
         rdf:about="">
        <dc:format>image/svg+xml</dc:format>
        <dc:type
           rdf:resource="http://purl.org/dc/dcmitype/StillImage" />
        <dc:title>GAJSE logo</dc:title>
        <dc:date>11/05/2014</dc:date>
        <dc:creator>
          <cc:Agent>
            <dc:title>Adrián Arroyo Calle</dc:title>
          </cc:Agent>
        </dc:creator>
        <dc:rights>
          <cc:Agent>
            <dc:title></dc:title>
          </cc:Agent>
        </dc:rights>
        <dc:publisher>
          <cc:Agent>
            <dc:title>Inkscape</dc:title>
          </cc:Agent>
        </dc:publisher>
        <dc:description>The basic logo of GAJSE</dc:description>
        <cc:license
           rdf:resource="http://creativecommons.org/licenses/by/4.0/" />
      </cc:Work>
      <cc:License
         rdf:about="http://creativecommons.org/licenses/by/3.0/">
        <cc:permits
           rdf:resource="http://creativecommons.org/ns#Reproduction" />
        <cc:permits
           rdf:resource="http://creativecommons.org/ns#Distribution" />
        <cc:requires
           rdf:resource="http://creativecommons.org/ns#Notice" />
        <cc:requires
           rdf:resource="http://creativecommons.org/ns#Attribution" />
        <cc:permits
           rdf:resource="http://creativecommons.org/ns#DerivativeWorks" />
      </cc:License>
    </rdf:RDF>
  </metadata>
  <g
     inkscape:label="Capa 1"
     inkscape:groupmode="layer"
     id="layer1"
     transform="translate(0,-988.36218)">
    <path
       style="fill:none;stroke:#000000;stroke-width:1px;stroke-linecap:butt;stroke-linejoin:miter;stroke-opacity:1"
       d="M 30.68594,28.566929 15.34297,19.708661"
       id="path2989"
       inkscape:connector-curvature="0"
       transform="translate(0,988.36218)" />
    <path
       style="fill:#000080;stroke:#000000;stroke-width:1px;stroke-linecap:butt;stroke-linejoin:miter;stroke-opacity:1"
       d="m 15.34297,19.708661 0,17.716536 15.34297,8.858268 0,-17.716536"
       id="path2991"
       inkscape:connector-curvature="0"
       transform="translate(0,988.36218)" />
    <path
       style="fill:none;stroke:#000000;stroke-width:1px;stroke-linecap:butt;stroke-linejoin:miter;stroke-opacity:1"
       d="M 30.68594,28.566929 15.34297,19.708661"
       id="path3219"
       inkscape:connector-curvature="0"
       transform="translate(0,988.36218)" />
    <path
       style="fill:none;stroke:#000000;stroke-width:1px;stroke-linecap:butt;stroke-linejoin:miter;stroke-opacity:1"
       d="M 15.34297,37.425197 0,46.283465"
       id="path3221"
       inkscape:connector-curvature="0"
       transform="translate(0,988.36218)" />
    <path
       style="fill:none;stroke:#000000;stroke-width:1px;stroke-linecap:butt;stroke-linejoin:miter;stroke-opacity:1"
       d="m 0,46.283465 15.34297,8.858267 15.34297,-8.858267 15.342969,8.858267"
       id="path3223"
       inkscape:connector-curvature="0"
       transform="translate(0,988.36218)" />
    <path
       style="fill:none;stroke:#000000;stroke-width:1px;stroke-linecap:butt;stroke-linejoin:miter;stroke-opacity:1"
       d="m 46.028909,55.141732 15.34297,-8.858267 -15.34297,-8.858268 c -0.926715,-0.0902 -0.935455,-0.09105 0,0"
       id="path3225"
       inkscape:connector-curvature="0"
       transform="translate(0,988.36218)" />
    <path
       style="fill:none;stroke:#000000;stroke-width:1px;stroke-linecap:butt;stroke-linejoin:miter;stroke-opacity:1"
       d="m 61.371879,28.566929 -15.34297,8.858268"
       id="path3227"
       inkscape:connector-curvature="0"
       transform="translate(0,988.36218)" />
    <path
       style="fill:none;stroke:#000000;stroke-width:1px;stroke-linecap:butt;stroke-linejoin:miter;stroke-opacity:1"
       d="M 15.34297,37.425197 0,28.566929"
       id="path3231"
       inkscape:connector-curvature="0"
       transform="translate(0,988.36218)" />
    <path
       style="fill:none;stroke:#000000;stroke-width:1px;stroke-linecap:butt;stroke-linejoin:miter;stroke-opacity:1"
       d="M 15.34297,19.708661 0,28.566929"
       id="path3233"
       inkscape:connector-curvature="0"
       transform="translate(0,988.36218)" />
    <path
       style="fill:#008080"
       d="M 7.9114366,32.474031 C 4.2173178,30.340339 1.2342111,28.558621 1.2823105,28.514657 1.33041,28.470694 4.1539971,26.829525 7.5569485,24.867616 10.9599,22.905707 13.985622,21.160619 14.280776,20.989643 l 0.536644,-0.310866 0,7.840681 c 0,4.312374 -0.04262,7.83918 -0.0947,7.837347 -0.05209,-0.0018 -3.117163,-1.749082 -6.8112814,-3.882774 z"
       id="path3235"
       inkscape:connector-curvature="0"
       transform="translate(0,988.36218)" />
    <path
       style="fill:#00ff00"
       d="M 8.2152522,50.37882 C 4.4104401,48.173016 1.2735568,46.344412 1.2444005,46.315255 c -0.077386,-0.07739 14.0560945,-8.217118 14.1803955,-8.16675 0.622317,0.252166 14.024593,8.124914 13.950551,8.194815 -0.246929,0.23312 -13.946614,8.071809 -14.085903,8.059674 -0.08599,-0.0075 -3.26938,-1.81837 -7.0741918,-4.024174 z"
       id="path3237"
       inkscape:connector-curvature="0"
       transform="translate(0,988.36218)" />
    <path
       style="fill:#800080"
       d="m 38.997946,50.435436 c -3.750191,-2.175227 -6.892557,-4.001808 -6.983035,-4.059067 -0.110209,-0.06975 2.176682,-1.454996 6.928737,-4.196976 5.579688,-3.219533 7.137085,-4.065985 7.298708,-3.966881 0.113006,0.06929 3.29047,1.905782 7.061031,4.081086 3.770561,2.175304 6.810489,3.998026 6.755395,4.050493 -0.243761,0.232139 -13.942931,8.07115 -14.084338,8.059414 -0.08688,-0.0072 -3.226306,-1.792842 -6.976498,-3.968069 z"
       id="path3239"
       inkscape:connector-curvature="0"
       transform="translate(0,988.36218)" />
    <path
       style="fill:#ffffff"
       d="m 38.911461,32.660784 c -3.867206,-2.236406 -6.992365,-4.102443 -6.944799,-4.146748 0.191741,-0.178592 13.9442,-8.0638 14.063939,-8.0638 0.123909,0 13.455541,7.656993 13.909212,7.988725 0.193906,0.141788 -0.632769,0.654582 -6.717042,4.166639 -3.815989,2.202723 -7.015082,4.031147 -7.109094,4.063165 -0.09401,0.03202 -3.33501,-1.771574 -7.202216,-4.007981 l 0,0 z"
       id="path3241"
       inkscape:connector-curvature="0"
       transform="translate(0,988.36218)" />
    <path
       style="fill:none;stroke:#000000;stroke-width:1px;stroke-linecap:butt;stroke-linejoin:miter;stroke-opacity:1"
       d="m 30.68594,10.850394 15.342969,8.858267"
       id="path3243"
       inkscape:connector-curvature="0"
       transform="translate(0,988.36218)" />
    <path
       style="fill:none;stroke:#000000;stroke-width:1px;stroke-linecap:butt;stroke-linejoin:miter;stroke-opacity:1"
       d="m 46.028909,37.425197 0,-17.716536"
       id="path3247"
       inkscape:connector-curvature="0"
       transform="translate(0,988.36218)" />
    <path
       style="fill:none;stroke:#000000;stroke-width:1px;stroke-linecap:butt;stroke-linejoin:miter;stroke-opacity:1"
       d="M 30.68594,46.283465 46.028909,37.425197"
       id="path3249"
       inkscape:connector-curvature="0"
       transform="translate(0,988.36218)" />
    <path
       style="fill:none;stroke:#000000;stroke-width:1px;stroke-linecap:butt;stroke-linejoin:miter;stroke-opacity:1"
       d="M 46.028909,19.708661 30.68594,28.566929"
       id="path3251"
       inkscape:connector-curvature="0"
       transform="translate(0,988.36218)" />
    <path
       style="fill:#ffff00;stroke:#000000;stroke-width:1px;stroke-linecap:butt;stroke-linejoin:miter;stroke-opacity:1"
       d="M 61.371879,28.566929 46.028909,19.708661"
       id="path3253"
       inkscape:connector-curvature="0"
       transform="translate(0,988.36218)" />
    <path
       style="fill:#ffff00"
       d="m 46.637225,28.54369 0,-7.816448 5.839945,3.372487 c 7.67636,4.432993 7.698572,4.446091 7.639457,4.505204 -0.07053,0.07053 -13.385984,7.755205 -13.437662,7.755205 -0.02296,0 -0.04174,-3.517401 -0.04174,-7.816448 z"
       id="path3255"
       inkscape:connector-curvature="0"
       transform="translate(0,988.36218)" />
    <path
       style="fill:#ff6600"
       d="m 31.263055,37.094557 0.03248,-8.209402 7.071068,-4.083728 7.071068,-4.083728 0.03251,8.034156 c 0.01788,4.418785 -0.01622,8.066182 -0.07577,8.105325 -0.05955,0.03914 -0.131172,0.142701 -0.159153,0.230128 -0.02798,0.08743 -3.190481,1.971939 -7.027777,4.187805 l -6.976903,4.028845 0.03248,-8.209401 z"
       id="path3257"
       inkscape:connector-curvature="0"
       transform="translate(0,988.36218)" />
    <path
       style="fill:#ff0000;stroke:#000000;stroke-width:1px;stroke-linecap:butt;stroke-linejoin:miter;stroke-opacity:1"
       d="M 30.68594,10.850394 15.34297,19.708661"
       id="path3259"
       inkscape:connector-curvature="0"
       transform="translate(0,988.36218)" />
    <path
       style="fill:#ff0000"
       d="m 23.62472,23.824375 c -3.871707,-2.23774 -7.037328,-4.09703 -7.034712,-4.131754 0.008,-0.106547 14.042411,-8.146544 14.159697,-8.111785 0.251205,0.07445 13.991911,8.055211 13.992663,8.127105 6.32e-4,0.06083 -13.696576,8.038457 -14.005268,8.157044 -0.0401,0.0154 -3.240673,-1.80287 -7.11238,-4.04061 l 0,0 z"
       id="path3261"
       inkscape:connector-curvature="0"
       transform="translate(0,988.36218)" />
    <path
       style="fill:#ff0000"
       d="m 25.865963,25.008358 c -7.004061,-4.022458 -8.838834,-5.125737 -8.838834,-5.314931 0,-0.209059 0.556714,-0.550168 5.861432,-3.591406 6.401644,-3.670116 7.724195,-4.390745 7.949893,-4.331723 0.490124,0.12817 13.660826,7.81798 13.618378,7.951189 -0.04222,0.132502 -13.602801,8.06673 -13.754059,8.047431 -0.02122,-0.0027 -2.197786,-1.24496 -4.83681,-2.76056 z"
       id="path3294"
       inkscape:connector-curvature="0"
       transform="translate(0,988.36218)" />
    <path
       style="fill:#ff0000"
       d="m 25.865963,25.009636 c -7.096113,-4.080535 -8.838834,-5.128713 -8.838834,-5.316209 0,-0.208765 0.55963,-0.551826 5.866357,-3.596152 6.342678,-3.638625 7.717474,-4.386468 7.951398,-4.325296 0.499908,0.130729 13.655741,7.812711 13.611955,7.948321 -0.04452,0.137869 -13.575038,8.061031 -13.748869,8.05102 -0.02408,-0.0014 -2.202983,-1.244144 -4.842007,-2.761684 z"
       id="path3296"
       inkscape:connector-curvature="0"
       transform="translate(0,988.36218)" />
    <path
       style="fill:#ff0000"
       d="m 26.623578,25.452197 c -6.826402,-3.910554 -9.596449,-5.571265 -9.596449,-5.753305 0,-0.213899 0.525008,-0.536532 5.866357,-3.605051 5.255107,-3.018974 7.665165,-4.356171 7.85122,-4.356171 0.272479,0 13.738971,7.806931 13.743709,7.967642 0.0032,0.107493 -13.189134,7.836779 -13.660606,8.003663 -0.08999,0.03185 -1.981896,-0.983697 -4.204231,-2.256778 z"
       id="path3298"
       inkscape:connector-curvature="0"
       transform="translate(0,988.36218)" />
    <text
       xml:space="preserve"
       style="font-size:12px;font-style:normal;font-weight:normal;line-height:125%;letter-spacing:0px;word-spacing:0px;fill:#000000;fill-opacity:1;stroke:none;font-family:Sans"
       x="8.7125654"
       y="25.487934"
       id="text3302"
       sodipodi:linespacing="125%"
       transform="translate(0,988.36218)"><tspan
         sodipodi:role="line"
         id="tspan3304"
         x="8.7125654"
         y="25.487934" /></text>
    <text
       xml:space="preserve"
       style="font-size:12px;font-style:normal;font-weight:normal;line-height:125%;letter-spacing:0px;word-spacing:0px;fill:#000000;fill-opacity:1;stroke:none;font-family:Sans"
       x="16.541248"
       y="13.113565"
       id="text3306"
       sodipodi:linespacing="125%"
       transform="translate(0,988.36218)"><tspan
         sodipodi:role="line"
         id="tspan3308"
         x="16.541248"
         y="13.113565" /></text>
    <text
       xml:space="preserve"
       style="font-size:12px;font-style:normal;font-weight:normal;line-height:125%;letter-spacing:0px;word-spacing:0px;fill:#000000;fill-opacity:1;stroke:none;font-family:Sans"
       x="3.068594"
       y="997.44092"
       id="text3310"
       sodipodi:linespacing="125%"><tspan
         sodipodi:role="line"
         id="tspan3312"
         x="3.068594"
         y="997.44092"
         style="font-style:italic;-inkscape-font-specification:Sans Bold Italic;font-weight:bold">GAJSE</tspan></text>
  </g>
</svg>
